<svg xmlns="http://www.w3.org/2000/svg" viewBox="0 0 48 48">
  <path d="M31.2 5.6c0 2-1 3.9-2.5 5.1-1.6 1.2-3.3 1.1-3.3 1.1 0-1.9 0.9-3.8 2.4-5.1 1.5-1.4 3.5-1.7 3.5-1.7-.1.1-.1.3-.1.6z" fill="#000"/>
  <path d="M39.4 33.2c-.6 1.5-.9 2.2-1.7 3.5-1.1 1.8-2.7 4-4.7 4-1.7 0-2.9-1.1-4.8-1.1-1.9 0-3.1 1.1-4.8 1.1-2 0-3.6-2-4.7-3.8-3.2-5.1-3.5-11.2-1.5-14.4 1.4-2.2 3.7-3.5 6-3.5 1.9 0 3.6 1.2 4.7 1.2 1.1 0 3.2-1.5 5.4-1.3.9 0 3.4.4 5 2.6-0.1 0-.4.2-.8.7-1 1.3-1.5 3-1.4 4.6 0 1.9.7 3.7 2 5.4z" fill="#000"/>
</svg>
